<svg width="101" height="80" viewBox="0 0 101 80" fill="none" xmlns="http://www.w3.org/2000/svg">
<path d="M100.197 0.987793C79.8615 18.786 58.4381 21.4716 43.8218 20.8479C41.3032 20.6899 38.7328 20.4053 36.1216 19.9776C24.8994 18.1364 19.7668 25.3502 17.7056 29.4739C17.7001 29.4835 17.696 29.493 17.692 29.5012C17.1556 30.5498 16.837 31.3792 16.7104 31.7727C15.9439 34.1451 14.9814 36.2928 13.8282 38.2225C10.8889 43.143 6.71477 46.6566 1.40112 48.9036C8.75691 38.9076 8.34848 33.8823 8.34848 26.4792C8.34848 18.0179 15.206 11.1582 23.6645 11.1582C33.8072 11.1582 45.2432 13.1683 55.1816 12.3512C73.4996 10.845 87.1071 7.11346 100.197 0.987793Z" fill="#5B4A3F"/>
<path d="M57.7909 5.84806e-06C52.0865 7.39358 38.5376 11.17 30.3296 10.5912C21.8397 9.99201 20.7751 10.5449 19.4422 10.8731C19.2734 10.9154 19.17 10.6947 19.3088 10.5899C27.7864 4.12781 35.2716 4.65486 38.2653 4.5963C43.4211 4.49688 48.5768 6.59417 57.7909 5.84806e-06Z" fill="#7A6B61"/>
<path d="M17.2181 31.3421C18.8169 27.8457 23.9994 18.5614 36.5835 20.9998C62.1824 25.9599 84.2383 16.785 91.4597 11.9518C78.3855 21.3851 57.5773 33.7785 38.5886 27.0522C30.6339 24.2347 25.7583 23.277 17.2181 31.3421Z" fill="#9A8D86"/>
<path d="M21.0098 28.8297C24.4133 26.9231 28.7699 22.7013 41.5673 29.5106C49.484 33.7229 65.5284 29.6468 69.6127 27.7402C58.9936 35.7752 44.2902 35.2305 42.5203 34.6857C36.9112 32.9589 33.5349 26.3784 21.0098 28.8297Z" fill="#7A6B61"/>
<path d="M37.1498 38.3208C36.9698 38.4282 31.164 41.8701 26.8124 41.8701C29.5756 42.1764 32.8629 40.9686 33.0445 40.9007C26.6861 44.0237 20.8993 43.179 17.6545 44.3963C3.75984 49.6066 0.838796 63.7375 3.04932 79.9999C-2.65541 63.837 0.996695 53.2112 3.15195 48.945C8.14457 46.3999 12.1582 42.7638 15.1219 37.9356C16.1561 38.0129 22.2603 38.3761 25.865 36.502C24.4187 37.7777 22.7561 38.4613 21.5293 38.8197C22.093 38.8687 22.7751 38.8829 23.0829 38.7124C22.1782 39.2523 21.2656 39.3487 20.7777 39.355C25.6803 40.0386 32.285 40.0797 37.1545 38.3177C37.1545 38.3177 37.1529 38.3192 37.1498 38.3208Z" fill="#DCD8D5"/>
</svg>
